<mxfile host="Electron" agent="Mozilla/5.0 (Windows NT 10.0; Win64; x64) AppleWebKit/537.36 (KHTML, like Gecko) draw.io/27.0.9 Chrome/134.0.6998.205 Electron/35.4.0 Safari/537.36" version="27.0.9">
  <diagram name="Page-1" id="mXt4gFe71fGOxqiwHxPa">
    <mxGraphModel dx="715" dy="469" grid="0" gridSize="10" guides="1" tooltips="1" connect="1" arrows="1" fold="1" page="0" pageScale="1" pageWidth="850" pageHeight="1100" math="0" shadow="0">
      <root>
        <mxCell id="0" />
        <mxCell id="1" parent="0" />
        <mxCell id="Ef1Bo6TqSuuNvDRu5EZb-5" style="edgeStyle=none;rounded=0;orthogonalLoop=1;jettySize=auto;html=1;exitX=1;exitY=0.5;exitDx=0;exitDy=0;" edge="1" parent="1" source="Ef1Bo6TqSuuNvDRu5EZb-22" target="Ef1Bo6TqSuuNvDRu5EZb-3">
          <mxGeometry relative="1" as="geometry">
            <mxPoint x="172" y="264.35500000000013" as="sourcePoint" />
          </mxGeometry>
        </mxCell>
        <mxCell id="Ef1Bo6TqSuuNvDRu5EZb-6" style="edgeStyle=none;rounded=0;orthogonalLoop=1;jettySize=auto;html=1;exitX=1;exitY=0.5;exitDx=0;exitDy=0;" edge="1" parent="1" source="Ef1Bo6TqSuuNvDRu5EZb-23" target="Ef1Bo6TqSuuNvDRu5EZb-3">
          <mxGeometry relative="1" as="geometry">
            <mxPoint x="172" y="307.71000000000004" as="sourcePoint" />
          </mxGeometry>
        </mxCell>
        <mxCell id="Ef1Bo6TqSuuNvDRu5EZb-7" style="edgeStyle=none;rounded=0;orthogonalLoop=1;jettySize=auto;html=1;exitX=1;exitY=0.5;exitDx=0;exitDy=0;" edge="1" parent="1" source="Ef1Bo6TqSuuNvDRu5EZb-24" target="Ef1Bo6TqSuuNvDRu5EZb-3">
          <mxGeometry relative="1" as="geometry">
            <mxPoint x="172" y="351.06500000000005" as="sourcePoint" />
          </mxGeometry>
        </mxCell>
        <mxCell id="Ef1Bo6TqSuuNvDRu5EZb-13" style="edgeStyle=none;rounded=0;orthogonalLoop=1;jettySize=auto;html=1;" edge="1" parent="1" source="Ef1Bo6TqSuuNvDRu5EZb-3" target="Ef1Bo6TqSuuNvDRu5EZb-11">
          <mxGeometry relative="1" as="geometry" />
        </mxCell>
        <mxCell id="Ef1Bo6TqSuuNvDRu5EZb-19" style="edgeStyle=none;rounded=0;orthogonalLoop=1;jettySize=auto;html=1;dashed=1;opacity=30;" edge="1" parent="1" source="Ef1Bo6TqSuuNvDRu5EZb-3" target="Ef1Bo6TqSuuNvDRu5EZb-18">
          <mxGeometry relative="1" as="geometry" />
        </mxCell>
        <mxCell id="Ef1Bo6TqSuuNvDRu5EZb-3" value="Sports Odds Updater&lt;div&gt;(Producer)&lt;/div&gt;" style="rounded=0;whiteSpace=wrap;html=1;" vertex="1" parent="1">
          <mxGeometry x="232" y="282.21" width="84" height="51" as="geometry" />
        </mxCell>
        <mxCell id="Ef1Bo6TqSuuNvDRu5EZb-14" style="edgeStyle=none;rounded=0;orthogonalLoop=1;jettySize=auto;html=1;" edge="1" parent="1" source="Ef1Bo6TqSuuNvDRu5EZb-11" target="Ef1Bo6TqSuuNvDRu5EZb-12">
          <mxGeometry relative="1" as="geometry" />
        </mxCell>
        <mxCell id="Ef1Bo6TqSuuNvDRu5EZb-27" value="" style="edgeStyle=none;rounded=0;orthogonalLoop=1;jettySize=auto;html=1;" edge="1" parent="1" source="Ef1Bo6TqSuuNvDRu5EZb-11" target="Ef1Bo6TqSuuNvDRu5EZb-25">
          <mxGeometry relative="1" as="geometry" />
        </mxCell>
        <mxCell id="Ef1Bo6TqSuuNvDRu5EZb-11" value="Broker" style="rounded=0;whiteSpace=wrap;html=1;fillColor=#fff2cc;strokeColor=#d6b656;fontStyle=1" vertex="1" parent="1">
          <mxGeometry x="371" y="282.21" width="84" height="51" as="geometry" />
        </mxCell>
        <mxCell id="Ef1Bo6TqSuuNvDRu5EZb-26" style="edgeStyle=none;rounded=0;orthogonalLoop=1;jettySize=auto;html=1;exitX=0.5;exitY=0;exitDx=0;exitDy=0;endArrow=none;startFill=1;startArrow=classic;dashed=1;opacity=30;entryX=0.503;entryY=1.05;entryDx=0;entryDy=0;entryPerimeter=0;" edge="1" parent="1" source="Ef1Bo6TqSuuNvDRu5EZb-12" target="Ef1Bo6TqSuuNvDRu5EZb-25">
          <mxGeometry relative="1" as="geometry">
            <mxPoint x="563" y="227" as="targetPoint" />
          </mxGeometry>
        </mxCell>
        <mxCell id="Ef1Bo6TqSuuNvDRu5EZb-12" value="Betting&lt;div&gt;(Consumer)&lt;/div&gt;" style="rounded=0;whiteSpace=wrap;html=1;" vertex="1" parent="1">
          <mxGeometry x="521" y="282.21" width="84" height="51" as="geometry" />
        </mxCell>
        <mxCell id="Ef1Bo6TqSuuNvDRu5EZb-15" value="New odds" style="text;html=1;align=center;verticalAlign=middle;resizable=0;points=[];autosize=1;strokeColor=none;fillColor=none;rotation=30;" vertex="1" parent="1">
          <mxGeometry x="171.2" y="244" width="71" height="26" as="geometry" />
        </mxCell>
        <mxCell id="Ef1Bo6TqSuuNvDRu5EZb-16" value="Forward" style="text;html=1;align=center;verticalAlign=middle;resizable=0;points=[];autosize=1;strokeColor=none;fillColor=none;" vertex="1" parent="1">
          <mxGeometry x="312" y="282.21" width="62" height="26" as="geometry" />
        </mxCell>
        <mxCell id="Ef1Bo6TqSuuNvDRu5EZb-17" value="Notify" style="text;html=1;align=center;verticalAlign=middle;resizable=0;points=[];autosize=1;strokeColor=none;fillColor=none;" vertex="1" parent="1">
          <mxGeometry x="461" y="282.21" width="49" height="26" as="geometry" />
        </mxCell>
        <mxCell id="Ef1Bo6TqSuuNvDRu5EZb-21" style="edgeStyle=none;rounded=0;orthogonalLoop=1;jettySize=auto;html=1;exitX=1;exitY=0.5;exitDx=0;exitDy=0;exitPerimeter=0;dashed=1;endArrow=none;startFill=1;endFill=0;startArrow=classic;opacity=30;" edge="1" parent="1" source="Ef1Bo6TqSuuNvDRu5EZb-18" target="Ef1Bo6TqSuuNvDRu5EZb-25">
          <mxGeometry relative="1" as="geometry">
            <mxPoint x="477" y="195" as="targetPoint" />
          </mxGeometry>
        </mxCell>
        <mxCell id="Ef1Bo6TqSuuNvDRu5EZb-18" value="Database" style="strokeWidth=1;html=1;shape=mxgraph.flowchart.database;whiteSpace=wrap;dashed=1;opacity=30;textOpacity=30;" vertex="1" parent="1">
          <mxGeometry x="383" y="165" width="60" height="60" as="geometry" />
        </mxCell>
        <mxCell id="Ef1Bo6TqSuuNvDRu5EZb-22" value="" style="shape=image;verticalLabelPosition=bottom;labelBackgroundColor=default;verticalAlign=top;aspect=fixed;imageAspect=0;image=data:image/png,iVBORw0KGgoAAAANSUhEUgAAAMIAAABaCAYAAADq1IkfAAAAAXNSR0IArs4c6QAAAARnQU1BAACxjwv8YQUAAAAJcEhZcwAADsMAAA7DAcdvqGQAADO1SURBVHhe7b15nF1Vme/9XWsPZz41z5VUJhKGJIRBZmQQARW4+Ko4K+r1evVq6+1J1EZbvZfGqfu2ioJto+LUTu2AjKJMgkBICCHznEpqSM11qs64917r/WPtfaoqJpBAvO8LnN/ns1KpPa3x96znedazVgmttaaGGl7mkAdfqKGGlyNqRKihBkD84N7temi8iGPXOFHDSx9eoLjktC5O6KnHtmbGvHj3Dffrux/fhx9opAQOZTGIw1x/NhzuncNdn43DPXO013mWe4e7fiQ4+N2Df3+u64fCwc8e/HsNxwT5ks+t113I689fgOvMIsIHv/Kw/s6dWykVKiDFnJdqqOElh4LHj774Wt544cI5WpD44Fce1rfds418wUPUiFDDSxy64PHjGy/nDRfMJULNMKihhhoRaqjBoEaEGmqoEaGGGgxqRKihhhoRaqjBoEaEGmqoEaGGGgxqRKihhhoRXsbQIDWIajyTflkHN9WI8DKFRKABhUBrDVqCNmTQYcSfRsxKEq0FWouQPOolRZsaEV620Ag8mvxBlsl9tDOMVD5ogUCjhUAgEFqT9PN0q34Wy17qxBhKaaSSyJfQ5sYaEV6mcHSJM60NXN99Pzd2384XF/yO17TsJilLaC1ASzSQ1qO8Jr2az3bcyZfn3cUnu1ZzVv0AgfBR4qUTpFkjwssQkoB59PHOhjW8OrmFVU4v51ibuDbzOGen+kiKMgBxP8dF7gbeWreWV6Z2sMrZxeWJNby5/mmOT+dBzybCi5sUNSK8zKARSK3pEAOcmhkirosEShNon+XWDq6u28Rx8RGsIM8p1jauzm7kpOQQlvZRgSIdTHCC08uy1FRoU8x8+cWMGhFehtCAj4uvRajeGDXIVSXOiG/hsuwWLopv5PUNT3NqZoCYUAQIYzdojdAKDwmog7764kWNCC83aI1Cso9OVufa8XERgEARCE29HufSxHre3/g4F2T2kZUVtBJVI7poZdgSLGLTZAaErKpEYo6a9OJDjQgvQ2ghGaKFX0+sZEOhBR8LhKEDOqBHHuD0ZB/NVgmlBBqNFApPpljnL+UXEyext5g8yC6oEaGGFxEiR09FxHgyWMpPxk5ku9eE1hKpJVKD1Ap0EKo+Zm2hJJKsCxbz44lT+ON4G1rK8FtGJdIzK3MvStSI8LKFJi/T/L60il+ML6evnMFHIkJFySyqgRCaioixwV/ITyZW8fvJHpSIY2mzzPZSQY0IL1MINGiYlE3cNXkSa6ea8bSNFhCaBChhZpCczvBYfgGPTC2kqBJI4aOxqmR5KaBGhJcrtEQjEQTEpUfCMlq+0GLGAWS0IqTQxG1FTAZzbrzItaE5qBHhZQolwELTrkZ5c/1aLmrcg21VUKiQEIYYAYJGxnl1aiOX1W2lzsqhhIWSoMVs9+mLGzUivEzhaJ9GBrki9RhX121Caj+U8LOHhEAIASh66ONNmbVcWb+bLEWEioLvXho4hkSITCdtJk6hw1SdYQ+ecaMJtvqF2c/M/p7Q/1/4qcWc0kAYoXnMcLDrMcpvJs/Z0Z/HDmY9IMU0l7jP8IbGLTQ6RVytqvcCIahICxVGnCpslNIsFvt5e/1jvKZhC0lZMrZE9NW/ECmi2WnuUD32mR2znhVaILVAaCuMWpxJUUcLLUHLQ96bk7Q182FtGTL9X56GhQ5Dj4U2eQsFwj/4sWMHHdZ7FtmONQUMmcFWPsv0Tt7WvJEedwKJh8ZGaAiw2KM6WV/sYixIIgGJjxAaoTwWir28oe5pzsyO/8UG/wyM1W5koOl/k+exbRWOJRG08FBCoaRn4tsDhVBlpC7iqDyuKuCSx6VAjDKuLuOoIq7KI3UBS5ewVBkRlNCqiA588H3QRdDqWBb1WaHNWEEL3wxE3yPuV4irqkPxGHXE3HkR6YGogAhAK2RQxhUFbMtDHFMhIHCEx8nWNhbGJ6vf1oELusKUrOf2/Fn8U99F/GFqEXnhoIFACJRQuKpCjxjilOQuktKEbRPy+FhDE6BFAIGH7edxVAEpfER1fePY4dicfRrqP3E7oKdJ8boLFnDxOSfR3d5KPGbhOAIpwQKzLUprlDYTcRBAsaJBge/7lDwPzw8olEps3T3A3Q9u5YlNE4wUzFT9PEt4xNAahNakHY9Tl8T44Dsv5tSTunhq5xCf/D+PsLN3GhFZki8YVcUCrcHWms50iSte2c073vhK6hsbuP2RXj7z1d9TKuvwkOYXMkto0BYZ8rzH/jl/1bMBrRVCm9XmskzxS+9cbh08mV3lBhZ6m/hw65+4omEfMeURAEifUdHIz4vnc9PQWeR917THMYUAFLb2aU+XeP2rlvCW159DLqjjs994kD+t2W2eeh4NcbizT61XXPbef3x65yiep0LD6EhhohhNK0JHg81HrjmRT3/glVx13vEs66ynLevSlLJoiEvqYoJszCLr2mRdm7qYTV3Moj5u0ZS0aE5btGRsOuoTdDUkmN+SZuWiJv7LhcezbEE9+wYm2D9UACHDho8k89GU+bkgsIDuJsF171rJ//rgxaxY2ExrOsbvHtnKA2v6mS5o004vONtwUGsTwmDj8erTG7nhw+fzvtefwcLWLMVikTsf2soTG4eNq/MFZWvy0+YHCTXJadkx0raPFAGBTPNQeQU/GD6ZHeVmFC452cCUL2mWk3TECzhSoWSMvczjd/kVbJ5uQkmzBGdI/fxLF0GjsZSFYxe58KQ4N3z4At52+Wkc11FP70iFOx7ezuDgBGLW3zY4KniKN16yhBMXNGDNEvzP82uYImsB2qW5Dj761hW896oVnLiggWzSwbEFUiiEVka10XrWT5O01mgChFBh0lgiwJYKx9IkXJf6ZJwrzl3CtVeeyJLuFHjerAaPVItjA60DssmAt1y6iHdevpKW+gwx10YBu/dNUigQ2grHIs/oGxIqFVYtTvGe153ABacsJBWLIYDpQpldfWMEfhCS/4XkG72r8KXN02IF3xw+k99OLOO+qeP5Xu50vjV6KluKrXjaQaDQuDzjLeO2yXP40dhK7sst4Ze5FXx37FT+ONmBEsa4NngBQ2k2tEBLj+Ob4a/ffgavPHUpjXVxBJr+A9Pkpsp/ET3sBZRegNAoL8+1rz2Bay5eyrymFHbV2DNTuBACISRCWGEyLrlqwqomKSwQFloItJKARqFJujFeeXIXZ5zQiLBVGAYfNcaxmRV0qHksbE9y+Zk9NDckUIBQmqIH4yXw0LPib14oTJkVimRKcM7KVk4/qYOY64IyenuhIpjIH/TaC4QI1bAJXc/dhVV8ffwSvjJ+ObeOns3GQjclbDDjES000yLF6spxfCd3Pl8Zv4ybxi7i3olljPmJY9QOcyF0QFxP867XLebslYtIxm1EuLqxZ2CCqXz0dzxeeJ/PxvMmgg4l/XHzU7zrtScxrzWDEDq07S2EsMkr2DWcZ/WuAzy0uZf7ntrNrx/dzq8e3smvHtrBLx/ewa//uI17n9zDHzcMsnbnKLtGypSQIMM9s2ERu5oyrDyundbGlBko1U0hZnCa3xQC39BHBKHgmGmwGTfsrBlF+AgdgNIkXMGpx7exfElHmDeAZHiixFhOoZRGaGuORDKGm8lfi2jDu/G1VH3HIaTWWEqEZAoN4MBjXmuKs5fPp7u1wZRJanwNI7mAXEEfguzm/0ZMRORUCFS4XyBaEFMIgvCnDrs79ANJyTh17Ao62O51MuA3U8aEWFRnPGFsh4LIsF+1sy3oZo/fRk4nUcJ4c6p5aV09FUM+Cz9mmu7QDwmpaE6NcvUlq0iljDBSyiIA9g2Oky8WQET1ipKxcwhVP/08ZoznTQQzTALe/6bTWNyVwhKAlkgJU+UiN/3sUd788V/xzs/exwe/8DAf/cpj/M9/fYKPf3M1193yONfd8gTX3fwEH7/5Sf76a4/xkX9+iA988X7e/Zl7+OgX7uaZXUMoPTMcE3GHtsY02XQMlFn9nFMaDUJLFI5ZNg0sCEwQpfZNUoFA+Rrta3NdCdA2Whh3bdwRLGjP0lSXrroxtVDs2HeA/qFJfKWq0coRTMyNZTo2sCAQUM0jTL5C+4pAKXytwpMgwg8pRX3SoqM5jWM54QAR5Aseu/aNMDw+jfmbXlGmOhz8GHerkuhAon2BCkAFaib5oHwR/gTtC/NcGFxqTqWQRsWRvlH7DiFpNRotLBT2DEm0eV9pqinQRkYFWhgtuKoV65C0swXYn+cDYAnN8p4s81pbjMagNUJqSsD+gRyFKQ/C+pi6RfVTaG9GvhwtnjcREJr2Rperzl+EazvRbA5IfvPARr7+82e444FeHn2ijzXrRli3YZQNW8bYuiPH1p1TbN01xbZdU2zdmWPjtnHWbRrlyacH+ePqXn778C527Z/A86PYFgCBZRnvk4GeI1U0GhUEUC5iUSKTgOZ6m9Ymm47WGJ3tceZ1JVkwL838jjgtDRbJmOkOjUYIMyM0p80cFH1Zo9nbP8nQ+BQqUOiDxJ3WgFeBSoGYVaI+C61NLm3NLp0dLt2dLj3dJt+O1hT1WQvXDqUtgBDUJTRJN/qiACTTpTJ7+kYZn8wf5B4RECh0uQh+kVRM0ZC1aWmM09ESp6s9zryuBD3zUiyYl2bBvDQ93SnmdSbobHVoa7FpbrSpT1ukY4qYVcbCw5jsYbTdwdAa/AqUpqEyjVQFbMq4skLc8UjGApKxgHRCUZ8RpBMBqZgiFQtIuj4xy8PSFdNO5Qra842L3Xx8VjYa19KctbIHKSWoSOAKposQj0F3Z4Ke+aZes9PC+Rnmd2WoSydCd/vR4Sjdp0ZameIpLj+rlR9/9gqycQulDauKgeJ9n/01P/59H1hxhNShmhC5/WZLN2ZRWKBEAAoWtjt87a8v5NWnz8d1jM5a8gJuu2cLX/jBU+zqnULaZrHLjCiB9iu01knOO62HljQ01WdIpxJYtsZxLGwpsW0Hy5L4XoWJ6SJrt47xwLohRifK2EKzdF6Cf3r/Kq66cBVaB0aF0PDP//E0/3TbaibzymzKCttA+z5Sljh5URMrlrRQlxI01qdJxhNIqXFdiSUFtm1jSYupQpnh8TK/f7KP9TvGKPkBjta8+9J2Pv6us1gyv6PaKjsPTHHD99Zw6y83gGsb3V5ZoEvUpeDclV20ZixaGtJk0klcxyXmaqSlsR0bx7aRwtBcKY0fKCqVAC9Q+L6iUPAolysUvDJPbplg7bZpKioMpAsjAgSg/QBLeCzpTHNCTwPZlEXMldiWwLYktmVhWzagsWwL13Eoex5KmZlLBxrPCyj5AcWKZrIAW3on2bF/HKVkOObMeNBa0RjLc9s/nM3l558Zlt/cGy8J/rBmB6MTBUOS6I6pIkJKBicVv7y/nzXPbENY7twHQhzOfXpURNBE7lKJg+L695/K37/pFGIxsxQvhGRL7wHed8PvePSpcYgbaz+CmVUPziMil0YJINCsXJzg3z55OWcsa60+NZkvcfOvnuFffrqBA6MVpCWMqak0ltCccWIjb7qgi1efeTyZuCQec3AdFyE1ljSGuZQCKSRKK8anS/z0/p38y0+eYV9fAcfVnLuyka//zfmc1NNelVjTJfj8bWv4xi/Wky8F4XQNyqvQ2uxy6WktvOGi41h5XCeuJYjHHGzbQgiwpKzmC4JK4LFvuMTnbl3DnY/sIV/yyLiaf3z/KbzvqpOpSyar9V2/d4rP3vok/3n3JmTcAiXQImBpp8s1F8/jivNX0JSySCZcXMfFsiwsyyjtlpTVwWKa1pAhCMxPpTRe4BP4ARWt+d/fe4rv37OLciVU/YjUJkVMFrh4VRNvvXQ5K49rJ510kJbAEjOOEFtIM2sJgZQSpVTVatNKo5XCUwF+IMiX4ZGNB7jtrq2s2TRsNAkZzso6oDM5zv3/9i6WdHdUt4JqpVFa4wUBEMY/6dlrORrLsVizO89Hv7yaJ9ZtRlqxGUF5BEQ4StUozFlo4jHJiiVtWHKucbJhxwAjkxWworPUzCCAGU/E3BRdqz5Fc9ahPl3VFQAolCsMjeXITZdACDQKpcG1Becub+L695zGh655BcsXNdHT2URbU5aGbJz6dIJMMk46ESMZs4m7NsmYi2tJRsYLjE0UQRi1q6MxxsLuNiL9F2BsusCu/eMEQWiQalBBQHODxbsuX8T17zufqy84kUWdDXS3NdBcn6Y+naAulSCdiJGKuyRch4RrUZdIoFTA3r5xKp7pHNeusKCjYQ4JAg0HRvP0D+eN00CbcdbVZPHf/8tyPvaWsznjhHYWz2+jo6Wepvok9Zk4mWSMTCJOMuYSdyzijk3ctok7DsmYSyYZoy4dpyGboLUhQ0dLHZ2tDUwVdKi6h9aHNp4l6U9y5dlNXP9fz+Ftr1nJyUs7WNzdwsKOZua3NzOvrYnu1gbaW+pob87S3pShtSFFe1OGzqYsnU1Zulrq6G5rYGFHM8d1N7FqcRPvuHQp737tcrpbs8bpAoDAEorWOkFna/NB4lJjCcJ2dEy9XDuso6mng0Wx5LN73xBIp/rebBI8G6RlWUf6rBnSSiA1tDTE6GpMoqXxQkRG7Yadw4xO+iCNSnM0hQFAKLqbEyTduU0xXfQ4MF6kWPCMT12DJeH4+Wk+/MYVvObMRbgyHmZ1uPwM7wMV8PSOYR7fMEh+ygMpcW1Ba9oiaVmh18fkf2B8mq17hvD9UFpqTcz2ufKcLt7zuuUsnddsYvsPl2UVgrFimT+sGWT73jEj3YQgYXvUJcLYqvAjZc9j7+A4u/tGwTJHMiZiiotXNvO21y6nMZtFa40KA+VmicZZONS1uSgFmoeeGWXT3gl8L2o6s4IgKPLqU+q47p1ncfaKJQhpHUEdDwfzotagVEBd3OaSV3Rx3indVeGC1jgWnLCgkZQbD+OujPtaCIGQ1kF1EnO9YEDfmMfwaA4hZlt5RwY5OZl7TpUoQuTpsIRmfnuauoSNlJHkh0pQoXegSKFoOjlyMDw7ZvI2YS+aJfObScUNqyMPyWTeYyznGXGJOYOzOWPz2rM6uPSsHuOyxeyzLVV8+kam2Dkwwba+Mbb2TbC1f4LN+yfYMjDJXWv28527t7Nm+wQ4DmhN3JZ0NMbCkmiEAI1gLOcxOJonCExQoVIBKxYmef0Fi1jS3QgEIDy08pnMF9k7OMH2vnG29k+wtT/Hlv5JNvfl2LR/ih/ft4Pv3rGNnBdOfx50NyXIJk0bhMOFigeD4yUOjEyZdRUUzWl44yXzaa1LobUPWKAD+kcm2dU/zq6BCXYMTLJtYJKt/ZNs7p9kU1+umjb35djSn2PbwCTbBybZ0j/J/euG+JcfPMG23jEz+AVGfw18lndqPvGeCzjtpKVo5ZvjIFFMFsps6x9ja/8kW/sm2bR/gg37Jtmwf5Jn9k/MSZv7c2ztG2dwbJJypWJit4QEFPNak5xzSheWbRs1VGniFpx8/LzQ2A1tSqHJlWBzf571+6d4pm+KDfun2Dgrbe6f4sld06zdOm5i3Kpj6sjGNYC49EPf1Y/thtxU6cgIoTWupXj7a47nf//Xs2ivjxu1RsD+4XE+9IUHuOvJIXwVxbIfObTSCFHhR5+7jKvPXUjcsUJfhuDeJ3v5x39fzZ+eGgTXxULzihPq+OL/OIfzV/aEOr2i7GnWbh3k1w9to3+sgqdCbwiSAIGQgp29Y2zaMUa5opGWjfIDFnXF+NePnsYV56008TdC4CvFTx7s5YM33MNUyRDNFj5//ZYT+NibX0F7UwalfYQQDE8U+cOa/fxh9V5yJWVmSi2Np19bgMUja3czOFoE20JojS56fOCNPXzy3ecwv72lmu/QVMCXfrKeL9/yMCQS2Hicv8zizm+9Fxc7XDOw2TGQ4zu/epL9owWUtggI8wO0Dg/tBSOUwoEuUUhAacmeAwXWbRqgoqKN+IaM0pvk+mtX8uE3nUVzQx1KBUhpMZCrcMcfd3LfYzvRlkMQ9lmUjxaRha2RQmNLC+GXOHlBnDdcfBLLetqNEEMhhMWvVvdx7afvYXLKAzQdmQo3/e3ZXH3xqSZSOVSbH9yS57bfrmMkV8SS1izHS/ivgGJFsWPfFNt3D5nZ4zBS+HA2gvirrz6u//32DeSLz20sE0rtVELz8XedzkffeDLpWHQUCDy6fhd/e9MTPLZ5ohob89wwEt5IeU3WLXHPN97GmUubzUJX+I3b7tnM57+7jh17c2BJUjGLN1/SzTf+7jJiVqjT64BdB/J8+uZH+M+H91LKh2HTRtSF+SmwLIS0q1JfexVOPzHLL798Nd0NmbBYASUfvvSz9dx462qK4cp+a6rEbf94BZeeuQh0gBDgBZq7Huvlhu8+yePrB837knAtIpQSCLDMOovQEiUVOjfGzZ+9nGtfs4KYY6G1kZhbBwt8/nvr+OHP10LcJRsLuPZVGf71E+9AEZj4JCH5zK2P8dUfrSOXK4M4WHX4818hDK0lHLBSIuzQ0I2eCAKO7wr40kcu4rKzlmLbRm3zkPz8gd38w9cfYffeSbACMytVzcxw4Inov2G/+hUWdpT40scu5v+56DSEtFAESCx+s6aPa6//HeO5MkIGLG0qcdvnruCM5cdVZ0chJDf+bAc3fPsBpsYKYEUh+lG76hmXrw2WJVDRus4hcDgiSM+rHKLBngVCkEzG6G5L4Tqh6zJUHnfsH2NksmgM+iP+ZvSgBjRtDQ7NGXPolPmqINCa3oFxDgznQJqV3WzKZnlPiphl/M2gCJRm464Rbn94GyXfgpiLjDtI18FybWTMQsRiCNtFW9oMRgSIgKasZUigwuhYARVfseaZvfhBaAPpgMUdNl1NJhYoGgiTRZ/71/Xx+FP7ELE4MpZEuClwk1iujeVYWI4Ey0JJQWAFRnrqIvNaM8ScUD0IsW9ogo07+sEx0i+ZtHnFqYvCZpppmS3be9FS4CRiWAmnmmTCRsRtiNkQs0xybXBjEHMh7kDMRbgKLYOZBToAv8xpJ3awuLsZx3aMoY5kx/5J7nh0D7sHc5B0IBZHujEsx7SvdB0sx0U6LpbjQsxBxCyIJ/C1ReBT7WOhJQEwVYKSpwGJLTWdzTFaGjJGKAqFQKKAHb0j6MAxXsiYDTEH6dpYjjRt60qka4Qbyn5eG6iO+g0pAxpTMdrq4mZxSxojUqPYfyDPVNGvSvio4keMQHN8T4aEa4pl/AmSfNln/1CeqakwzkR5NDc6nH5St3lPaMAiUIKndoxSUolQYJhwBy3M0YbGCDZfFloglTHIXFfQmQ0lTchLoSXTfoVntg8RqHBmqpR51dnLaGvKmmeEeWFguMTOvjLIGAjTiRAgwhOjoxSFAggtQQnqU5pk6ODQwgQhAvQPT7F91whYNmiI2Tad7Q1hniZcQqmAL37sCt52URPnH29zxpIkpxzXwPJFTSyZV0dXa5zmrEUmBnEL4rYgbktc2zLuZKXR2qlupCLsKUv6zG+MhV4749kzZSqxa98UKPOu1KBFQBBqEUpAIBUKZdzgIrS+gzLL5jfQ1VJfVZWFEBQ8GBj2KBaNII47Fkvmt5JJJUGAxAKhmAxg74Ecvu+HvWdKqwVz2taYr0a4IWYvxB4ZjooIWgPCork+TltjynRo6GHJFcocGC+ZuHnzdHjvKLLQitNXLg4NZV2NMxqZLHFgsmKYITTogPnNSU49cSHowGi9QlH0FA+u2T2zRPccHNQCE+KQiXPicTNrFpEqMz4No+MlEyaABMqccfJiGhvSVQ8PwMbdg6zdsgccM3CPCL5ixUmdNNcnIORfNItOFHzyk4WwaQP8wGNsrGBuaokWFlIq5rfF+OYn3sh9t7yPh779Dh761pu492tX85PPv4abPnoen377CXzodd1ce2kH77h0HtdcsoCrzu/htGX1JFwPibFjqlCK1oY4C7rqScXdcNCZaKqhnMdormIKKc0gRIMQPsLSSBkgpXFDW5bGIY5jadrqNReeNp9F85pCw99UcnCsxOYdB0yfaoVje8xvT5OMRw4LAMn+gYCx8SKenjNvHXMcxSg1TLAsTXtTkvamtAkCDDE2UWBwwqPyAnYzWsLnzJXzScUloKt/iGLvQI4DYyWwTBxRzJXMa46Rsk1gAAK01kwUKjyzdcioZrOk2eGhIfDobE5x7mlLoisAKK3YN1ykohyU8E2Idsyjo97FCv1kkQ98z+A0fftzRn+d1SbPCq/MxWevpKO1rnpJCCgB4/mIpUbw5PI+9z2yDYyMNgMQgVQCtIfQCksJYihakoKTe9Jced4CPvyWc7jho6/jax+/ipv+/jK+8fGL+MbfXcjX/+oCrn/fGZx6fBOSAKK/gqOgoznOgq4mEjEnnJMF4wWPXf1jjOdCMgJoj4RV4fhOh1ed0sHFp7Rx2RktXHleB2+4eD7veu1i/uotK7nxI+fz1stX0dqYDctu2mzvgSk27BwKpZUiaQd0NSdwXaMmmvgk2LZvlFzenK5xxG37PHB0RBACV9p0NCVpyM5e8NIMj08xODYd+sdnrh+JiBTadG5dWrCoswHHMgs60Yc27Rygd2DCDDQFjZk4SzuNUSvCP4KktaR/tEgubzo2lLFzM5oFTZiHVnQ0JDl52TzATNug8bXmiaf2h6e/2aAUJy6oI1t165pnPWBsWoFXnbQPyukQ0BL8PCuPa6U+nQAdebYEe/vzbN45ZuqqTWx4oSx5YuM0G3oHTNiBVihMO2thG+ksK0htPGxaiKrklRpsNI4UJC1JS9ri1GUtfOD1p/A316xkQXsKIbWZ8bSmJW3R2pjGdkzYDAjGJ0v09uXI5StmxASKlpTmg1d284PPXMpNf3suN//NBdz0sQv514+cz5f/+7nc8P4z+NTbT+Gtlyynp6MZpB16BRX9uSIPrx9iW+8ECJBS05CM0d6UwbbMHnVMiB67B3NMFwPjBTt8d75gHCURIO7adLdncKzIMjdSY2isyMhYEc8/SnUo7Di0YH57knTM+Mg1M96MbXtGGRiaMlGYvk9HW4ZTViwIXzfbNz0/YOueYQIRrSo+F8IBa2nqkpCUzFF3yl7A3Q+txleYigc+55+7ksa6VPUZEAyMlRkYKZqOfo69xdEEZWRdkWzCwgojX809yaZdfaxdvwNsI2gkGqRk47DH33z5fh7btg8lJRYxhAiQVRXSRUnjcjRHd5mwbEMW0x9GyREIS1EXl1x01gIuOXcZrgzVDhHQkLHIJpxwj4jBVFExPFGiUvYQGtKu4sJTWvhvbzqLVUvaWdCeYWFHHT1tWbqbs3Q2pWhuSFCXcnFdiRQaCJBC4yubRzeM85uHdzIxOQ2WjS2hpTFBa3Noe2kzw3sKBobzlEqVMPT6L4cjHrHREInHJQvaE0Z9FUY9UEpxYLzAdKFiQqSPqsTakIGAVUs7iduhGzA8OWKiVGRgvILyTNwO+HQ0x1m2sGXWNwSe53H/6l1oEa1oPzuM0NGkUxbz2uIQzV/hfurpimDTnslQTgvQFVYs6ySViPz4pkWe3rKPp7cNght949krH0ne+Z0p6sLZhTCuH2Dv4BQ7esdMiIpRw9EIAk/y0IYJ3vz3d3Petd/gg1+8g1t+u417nxpk9fZh1u8aZsueIbbtO8Du/jH6h6cZnyxRLBtd1cxWAuODlwgNmbikq8kh5oZh6K5mfkeGVMKQMDJuc0VFruCDCtBCE4/Did02x81rREqJHcY2mWTklQxjggQSISSWsCkruGtdPzf/6hnWb+o3A0j5OLamtd6mpSE1M9KEZKIIAyNFyr7/vCJKjwZHTAQwDpt03GJBR52ZzsNdl2XfZ3CsQsGLenRGsj4XzJMKSwa8YsU8YrbRTcOJnd7BSYZyAUjXDDJb0Jh1aaozRmbkaSlUPJ5Yv998NByLzzUoUYq2xhQrlrSHF4xuqhT0j5WZrrigjUfEtnzaGxK4drj0H76xdc8wO3uHwTEzU0SQQ0EJzOq8H3DWqUtoqY86fuaDY3mJLolZwsTsz9JIyr5F72jAEzs137+vj+tvfoz3ff5e3vqpO7jmU3fylk/dw9v+4S6u/dwdfPgr9/KJb/2RL/zHWm65fTN3PLKLvQNjIMJWEWYrbTrhYDvG5Zh0JQu6m0jMMlh9DYNjRUYmy1XHSH0mzqKeNgQxAiHxkHgISkBRC6Y9mCz5jExV2Dcyzbqdg9yzZi9f+vFGPn/Lah5e3YvCBOyhNbbUNGVc6jIpQ1kjkRgaLTI0OoWvjLA8chzNswZHRQQQpOKCtuZsVZJLISiXKwyOTFEJRLiwc+QQmA3smbjFku5GnCgsN/RmPLNlgP4DeeNKRGHbgrqkg5FZZhBpYLLgs+/A9HMMxYOgfDqaEpy0pKNKSSnBCwIeW7cXLZywUTXxWEDC0mFAZFhGYCTnUZgOvSnPmXPog/HzrFzWSV3WzCJmaV6yZ6TAjv0TYIV/vCMSjlGdhEBIGyVc8iXN8ITH/qEiu/qLbNtX4pm9edbuKvLo5gJ3PjHGj+7bx9d/tonPfvsRvnTbg6x+ZvesLjc2kucFKN+0Y8KF7rYGYm6kXgpK5YDegTGGx6aNJBSQK2puf2yU6761mk/c8gSfvPkJPnHz41z3jUe57pt/4rpv/pHrvvlo+PsTfPwbq/n7rz/C1376JE9tPUDFU2bxNmxGV2qasg6pRGJmPUUIhieLjORKBMZY+YviyIkQBrk1pGM01kX7VTUISbHss39ogoqnZnyARwzj3ZnXGqet3gqX0Ktdz/rtwwyOTYMlQGlSMYuG9IwdIAQopRmdKlPywojWiKazdP6DobVxA7bU2bQ0hAMSAEnR8/ndI5tRIty6qDRNWZe4HZ06YTqwAkyVCeN+jP59KFT7FuN7l5ZHe51NLFQDo1Ju2NFvFtLsZ1fvqk0sJcKyEZaFsCTCstDSxtcOZU8ylQ8YnagweKDA3gMF8qUSYGZRjWmkiUJA2TdnKcWtgOZsMrT/DEpewOBonsmpIkhDyrFJyT1PDnPLbzbwb7dv4Nu/3ci3b9/Md367he/+djO33bWNH967g5/cv4tfPbybB9b1s2FHjqHRAF+ZWX0GgkTMorUxjm1FqqImQDA27ZGbLocr7rNeeU4cvt8PhyMnAmYXVypuEbcMlaMuLFV8hsemKVeMLmdi0KNteodJCrRSaKWQusL5p3bR3pBEChN3j9CMTJfYM1wgX46WqjWJuEN9OmYqG44wXwUMjRdRyjLjUc1taD07Ra95Ps11DicvbqQhNeMB01qTKwq2905EVwBobcoQr0pKg6miz1TBbCYyxTHBgJEHyOQ5U1StFNrzOPWENpbNa8SxrdDZYPTffcMlBobyM5t+w2pordF+gPZ9k7wA/AB8v7oN1NzT4CsIgnBfdwDKw3E0KxZmOXlZl+lHDaCYLGj6xip4gQYCbMsjFXeRcoYIntLkSx7FciWsh8RTPlPTFSYmykyMe0xMlJmcLJObDMhN+kxNBUxNaaanBYWCoFKxUcJCWgqLoOoWjwRKLGbRkImZNhPmjtBQLAUUiiVT92jb6+HS7F2gf1kiAOFB4hIg7HCNwrGhvTlJc32MRNwm4VrEHHBtjS0VUvhEmqQlfRxbEY9pUklJc2Occ09s5spzF1GfjoOIlvwlT23uY/dgEaXDg7202exiW5FBHc6tQNK1aW9OEXdA4oFfQftFdDkP5TxUCuAXkXjEbE1jg8UFq9q46PQeUgnHxPAgqPg+67cfYCwf7Ss2rl3XMbvMjEvDtIYtoCkrSdRZ2DJAqAr4ZSgXwnwL4JUAD0sGpGLQ0xbn6vMXsXR+K45tocL4oqG8x9beKaaKYeSGwAwMpZB4LOxMctw8lyXdSRZ1p1jYlaanK0VPZ4L5nUm6O1J0tSfpbk8yrzNOT2echV1pFncluPS0Rq69YjknLuoyBRcCpTS7D+TZtGMYFUb0SpTZ3BP2NSgcCc3ZGM11cWwLJBVQJfA98PyZn15Y9yhVSuaaV4FyyfQHCh06AGZDoLGq5xSZu0JAa9ZiYVeGlqY4dXUxsmmHTMomnbRmUsoik7JJJSzsauzQUU0fwFHsUNNa49iCS1a18Z//fBUxhRkUQlMoVvjDU3t5escEoxNlKv7MDqjA1wRBUNX9zHY+C9exScQcmhsSnLyonrOWd1KXTiDwEUKSL1a48fuP863f7mRo3DM7y5SiKSv5n9ecxKeuPdeIAGFCo/tHi/zH7zexo3eMqekylYo5NU8pI65ty8JxJLGYSyaZZF57lrNOauP049vJpuKht0vQN17ghu88zq137KTsS7TwQUlO6vL44f+6mpVLOkPRo/G14JH1ffzu8d30D01TLJcpeQGe54VRsxLHtoi7LrGYTUMmwQk99VxwSidLupuxbRlO+xZ3ru7lxu+t4eGnD4AMV0cUxF3FWSfU8a4rVpCJS3wlCbQgCARKm3ZV5oRNUyyhsaXAkmAhcSxFd0uMlcd1kEkmwzaDfNnnu7/r5dM3PchEwUcpwbLmHP9x4xtZtWxedTCVvYDVW0f5w5O97OsfJV8sU6z4BIHCD4yqo5TRDuYsYEZ+f23CwwbHFbsG8xSKXhiKHT6mFD3Nik+9dQnvv+ZSE5mqjbtkYLzEw88M0tuXY7pUouKbfHXVZjBltCzJwLjPA2sPsG9w3Hx/dllm4XBBd0dOBDS20Jy8uIEffP5ylnWYlULjWtT4OmCqUKZQCgiUIvAVSoUnHISBbADCMsvwtiVxLYtkwiGTjoezDGF8v8Uf1uzic7eu4dFN4/iBQAqzxdCWPu+78ni+9reX4Gg/DH0wJcmXPUZGpil6hoSeb2YXjZlJLEtg25K469CQSVGXiZk5TYOloegr7n5yP5/46sNs7yuipVmoA02dM8Wv/s81nHdSd3jyopHkvlKMTxWZyOWpeAovMKdVmJYUZgazLRxbkoo5NDWkSLh2uCptNp0MTPp8+Ydr+e7tGxmb8hGh6ql9n6Vdki/8j/O56oKlSOaqZqZm5iQJ870wV2lm7bm9GR2zaWzz3SM+H7rxPn4feXACQVd9ga//3UVcfvbxuK4581Rg/PmT0yUmcgXKlbBdtSZQfkjAkAizFIzQCgENTsLhJ/f3cdudmxkaziNCxwchEZrTivdf3sH1H7iMeCyy18yM7ylNqejjeR6+8lFVtcqonUJrhOPwp805PnPLE2zY1od4lhX+wxHhiI98jFZNlQ6Y35zm1GUt5giX8BVLChKxGNmU2R7ZkE3SWJekqS5Jc32S5oaUSXVJGrMJ6tMxMimXuOtUySQECGGxtXeMm36xngefHqJYNnsIAIQQKE8hpGZpT4aF7Y3mpLxQx4s5Dg3ZJC0Nadqawq2IYepoztLWmKWlPkNDJkEiFgVKYOwSYN2eHF/54ZM8uXU0POLFDAUhoFQWNGbhFSd1kYq5IfWMAyEVd2iqy9DamKGjKUtnc12You2LaZrrUmTTcRxLorVCC40U5vyIH967je/fuZn9w2WEtBDCxPjHYwEXr2rko289h5hz8EJhaIloIySkMAtXUvw5CaJBKYVZi5mowFd/up6f/m6TMV5De6/iQ2uDZNWyDjLJ0A7D+CmSMYfGbIrWhjTtTRk6mrN0ttTT3VpPd2vdrJ8mzYtSWx2djRke3TrOo+v6KJWCPxO4WmkcS7FqaQMdLQ1G7ZambrbUxFxJMu6QTsTIJONhipFNumSSDol4jPV7pvnNwzuYmi6Fe8QPg2Nx5KPWFqO5Mr94YDtP7Ryh5IUnRgs5S7E91JSkD0oRok4AjaLkBWztHeGbP32a3zzUy+S0/+deKMvh6W2j3PLTNfSOTkXaUbjRO/r2wflFSZkZx2wpwUhTwXRZsXb7OF//yVruenA3vja2D7P3VMgk3/7FWu5+ZDuThRJaGGk+E5M/O4/ZKboW3TfECgLNSN7jFw/u5Zs/W8u2XWYRzcgEASqgMRvjlBO7cS07PLPISH5NNFOZ5+didhuE7asFKtDkKxV2Hshx611b+OfvPUzJI7yv0VJTrNjc8/h+/rRhD1PFQvi2NdtoOUqYsmwf8li3dYip6XJ4CkhURiPcyr7gqZ1T/Oz3mzgwOkEQhCvmgln5zq7XzPsg2D1Y4JGn+xkeD4++eR6xGEesGkFkJyoSruZ15y3gTRct5sQFLaRTLrYMJVTo3QkVVlOusDKC8FYoo8x5ZZrADxgeK7C7f5Kf/2Ezd/yxj5LnIuzwWwdB+5qGjMUbLujiLa8+ga62LKmUUzXio8ErhNG10eZMBTMcTUMqDaWKYnB0mk17R7nz0X5+c89GRDJr5ONBOqZGgxewYqHLe69cztknL6C5MUncNnsVhDDKAShkeJylChcdo1wFFr7STOd99g6M8OSOHLf84in6+guIWHT8SFjjwKe90eVNr+rholO7ScVc4m6MRMyoWY7j4LoutmXqGeWvMRI28AKCQBFoTcULyOVL7D6Q48Gnh/n+b58hUA7Sso1CoxVKmFP8RJDnVac18s7XruAVy+eTTcXCM8hNu0az6J9j7gA1YgTynuD79+zg33+9hb0DU+E6zMFtK5Dap7OuwnuvOpFzV3bT0dpKImFhW7LanjLsUwEooUBLJqYVd6zu49u/3Mj23SNIywodLocey4dTjY6KCERRnVojVMCiriSrlvfQVu9gW0ZCWtIycfeRxBTm6EMdkUMD2hzPoTX4WlMuB+zpn2Tt5gGGxwOEE0rZqpQ3w2h2QbQKcC04bn6aVUs7aaiP4chwuEkTvySFwBJG7YoWZVS46T1QmqlCwI7ecdZvHWJyUkHCDT2XysQ/zc4PHQbLeTRkJScva+e4+Q0k4xIJZu+2EKbe0nSYVhjXnoAgNNrLvmBkosLTWwbYuncMcJFWFFBmBlxUZ4km6QQ0ZI2hnUrGSCWN4Z2M2SRjMRwnPLqlWlxB4EPF86n4Pp6vKFU8RseLbO8dZ3S8bMLFZeQVk2ZGEDqUpBr8MkvnZThjZQedTXXYUiDkjN1zxBCKwckyD6w9wO790yZuS1S1++pjWoBQEq08XEos60lz3OL51GfiuLYwQb1SmxNyw1P/BGbzVP9oidUbR9i1bwJhmT9GY2K+Dl3OY0OEECIMOyBQ4VmCIcMFZmW5GmYRuThD6NlkiK6F/0jLbKE0YucIEEaPqgCz/SmsfOQxEIfIG/N3GCIyIpiTr9H7nyXz8B2tMX58HW4AmV1mMet3jfEWMCvP6CHLDEZJRILoXvQRMzDNK2Eba2nWB0R4xuKcdw7u+1kFitoiDASaK9X1zLM6PDYeYQ5JCLxQHpn6CDO9HxFENANrXRVqQpqQimeD1uG4MlvawqLNuKxDPdhci/pZWiCjDUbP8f1jSYT/v2NW186036z7RN6TP7tRw6EwZ2jNbtwjwFE8+n8FhyPCzP9eECKWcnCzPSd0aNscaqHlyDGTf+QhgVBgHKIzot8Pvl7DoRG1oQgHjAxPvD44zX7uUO1+9IhyjKBnpWOLY0SE2YU7uuqHa3LVQfv8MJO/mKXcPJfz4Lnu1/DnmCO4DkrHHjpUsCIcO4odjGNEhBcX/nIdV8OLFS9LItRQw8GoEaGGGmpEqKEGgxoRaqihRoQaajCoEaGGGmpEqKEGgxoRaqihRoQaajCoEaGGGmpEqKEGgxoRaqihRoQaajCoEaGGGmpEqKEGA0OEY7/hp4YaXlSQGpDSHKIla6mWXuJpzh/+mwXx3770kN68dwJ31kbmGmp4qaJYCfjkO1ZxyeldxJyZU79FEESnSdZQw8sD5sCwudf+XwRQbcLeU74RAAAAAElFTkSuQmCC;clipPath=inset(0% 2.58% 0% 0%);" vertex="1" parent="1">
          <mxGeometry x="85" y="241.16" width="86.2" height="41.05" as="geometry" />
        </mxCell>
        <mxCell id="Ef1Bo6TqSuuNvDRu5EZb-23" value="" style="shape=image;verticalLabelPosition=bottom;labelBackgroundColor=default;verticalAlign=top;aspect=fixed;imageAspect=0;image=data:image/png,iVBORw0KGgoAAAANSUhEUgAAALcAAABhCAYAAACUCTCtAAAAAXNSR0IArs4c6QAAAARnQU1BAACxjwv8YQUAAAAJcEhZcwAADsMAAA7DAcdvqGQAAB4JSURBVHhe7Z15kB1V3fc/53TfbZbMkm3IRp5ogBANm8TAkxDIG0zIo/UqUgIqFiAWgpaJJaTKKrUA/4CggiJCIaEKShYFSkFZLGWTECAJTMwDCSAJIctMMpn9zszd+/zeP7rvzUzfO3fuTBIyM+/9UL8w02ft098+y69P9ygREcqUGYdo/4EyZcYLZXGXGbeUxV1mzDPYzFqJiKxdu5Y333wTEUEp5Y9TpsyoJBqNsmbNGq688kp/EGTFfe211/LII4/Q19eH1uXOvMzYwBjDz3/+c37yk5/4g1xERK677jqpqKgQoGxlG1N28803y2CUu+kyY5pi0+iyuMuMW8riLjNuKYu7zLilLO4y45ayuMuMW8riLjNuKYu7zLilLO4y45ayuMuMW8riLjNuKYu7zLilLO4y45Zhi7vYRhW88GJxioVlKSXOYGTTjjSPQukKHetP9pz98QodGwnDzeNolTsUn1QZIy1HiYhcf/31PPTQQ8RiMX/4ACzLYv78+axevbpggZZlsXPnTh599FF27drlDwZg4cKF/OAHPyCVSvmDAGhvb+f+++9n586dGGNyx+fOncvFF1/M/PnzyWQyA9L0p6uri5tvvpnu7m5/ECeddBJf//rXmTNnzoA8lFIYY/jggw94+OGHaW5uHhA2b948vvWtbzF58uS88w4EAvz73//mySefZM+ePQPCZs6cyY033kh1dfWgb4sUQ0RIJBLs2bOHN998ky1bthCPx/3R8vja177GBRdcQDgcHlG5fpRStLS08Pzzz7Nhw4bcdZk6dSoXX3wxixYtwnEcfzLwzsEYU1I9snGz+adSKZ5++mk2btxIOp32Rwfglltu4ac//an/sIsMYz+3bduyYsUKSSQSkkql8swYI5s2bZJFixblpc3aZZddJiKSlzZru3btkqVLl4pt2wPSrVq1St58882iaVOplESjUbnqqqtEKZVX9le/+lXZsWPHoHls3LhRzjrrrAFplFJy8cUXy+7duyWZTOalERHZtGmTXHjhhXnlff7zn5d0Op2XplRLJpOSSCQkFotJZ2envPrqq7Jy5cq8cvqb1lruueceicViR1R2f3McR5qamuSGG26QUCiUK+vUU0+VF198UYwxeWn6W/Y8hmvd3d3ys5/9TCKRSN55Zu2WW27J7d/2M6JpSSgUIhAI5Fk2rNjbPJZlgdfjDWb+3jGbLhgMDpm2qqqKq6++mpqaGn8W2LZNKBQaNI9gMJirX38syyIUChEMBvPSAIOm01pj23ZemlItGAwSCoWIRCLU1tayaNEi7rrrLtasWUNFRYW/uByBQIBQKHREZfc3rTXhcBjbtgeUo5QiGAyilMpL09+y5zESC3htPBIGV2ERig0xxcKOlFLyzk4jzjnnnIKCK5aHiBQMH+x4lqHCjxaBQIBPf/rTfP/73+crX/kKkUjEHwWOUX0Gy2+w40eDI817ROIe7VRXV3PZZZcV7L3HOkopZs+ezfe+9z1mzJiRN8plF2D+4/8/Mi7FbVkWixYtYt68eQV779HAkfSulmVx+umns2LFirxhWylVdFo4UrTWeTeMUuqYtq/WumC5pXL0W2EUoLVm5syZLFu2jKqqKn/wqEApRUdHB3feeSc/+tGPuPHGG1m7di1r167lhhtu4NZbb+W1114b1AsRDodZtWpVbh3ySZBOpwd4sNLpNNFoFADHcQZY1kMy2A1cLKw/sVispHiFGLhCGCcopYhEIixfvpw///nPRKPRETfQsSQajfL444/z1ltvDVisiQiRSITGxkZCoRBnn332gHRZ5s2bRzgcpre31x9UlJ07d/LLX/6SVCpVUq+otaa3t5dt27YNcKE2Nzezbt06HnvsMRzHGZCX4zgsWLCAyy+/nFmzZuWVozz36yuvvMJ9991HKBTKG3UymQxbt24d1G08JDJMV+DKlSvFGOP3uuTYunWrnHvuuXlps/aNb3zDn2QAe/fulfPPPz/PFfilL31J3n77bX/0onR2dsoVV1whlZWVAsill14qO3fu9EfLsXnzZjn77LMHlKuUkksuuUSampr80XM0NjbKihUr8s71nHPO8UcdwK5du+S0007LS5e1GTNmyP333+9PJiIixhhpaWmRhoaGAWls25YHHnhAHMfxJ8mxcePGvLKOhS1atEgaGxsH1YsxRu6+++68dMOxo+oKHEvU1tZy0UUXMXnyZH/QqKHYiDJlypSidY/H40UfaA2G1pqQ5xI9lkQiESzLyuu1syjPhXisGNfiBli2bBlz586FIYR0PAiHw5x77rksW7aM5cuXc+GFF3LhhReyfPlyvvzlL/PNb35z0CmJUor//Oc/JJNJf9CQGGNGdFOMNcaduP0Cnjp1Kl/4wheIRCKDLs6OF/X19axevZpf/vKX3H777axbt45169blfr766quZNm2aPxl4i7nnn39+RPPR2tpavvjFL3LRRRfl2apVqzj11FOPas/uvyafFONG3NneqFBDXnLJJcyaNct/+LgTDoc55ZRTOOOMM/LspJNOGtRP7zgO27dv57nnnht0z0Ux5syZwz333MP999+fZw888ABXXnklkyZN8icbNkqpgtfjk2LciDuRSLBz507/YUSE2bNns2TJEmpqakZd7z1cjDG0trZy3333sWfPngGuuVIJh8NMmzaN6dOn51lDQwMzZ848Kj23Os4Pk8aNuLu7u/njH/9IX1/fgOPZxr3yyis5+eSTRySG0YQxhnfeeYeXX355RFOSUnAc56j0uEfyAOZoMG7EnUqleOutt9iyZUvBC7No0SLOOuusUftQp1S01ixYsIBLLrmE+vr64yqe0c64EbdSimg0yr333ksqlcoTuGVZLFy4kClTpgw4fiwZSngiQjKZJB6P51kikSjo0dBaM3XqVNasWcNFF110TF1pY51xJe50Os2LL77I9u3b88QtIlRXV3+ij6uH2uPR2trKrbfeyrXXXst1113H9ddfz3XXXcd3v/tdfvzjH/P000/T2dkJBTwO9fX1rF27tqgffDCyLwQUMrxpyXigeOuPMbK99/r16/Mu0FC96PGgt7eX5557jocffphHHnkk9/9HH32Uu+++mx/+8IfccccdxGKxvPorpZg/fz4rV64cdOvrYPT29tLY2Mjbb7+ds8bGRrZt28bWrVvZvn37sB/pj0ZGJG5/L+LHfyGGy5Es+hzH4bnnnmP37t1HlM8nRdZ9mclk8mzfvn0888wzNDY2+pPlPBGXXnpp0RcXCvH++++zfPlyzj///JwtXbqUxYsXs2TJEu68807a2tr8yY4JR6qVYgxL3OJ7x60QEydOHLSxQ6HQkP5Tx3FIp9ND3kCFyDZUa2srTz31FIlEwh9lzNHe3s6HH37oP5zjtNNOG3bP7TgOsVisoPX19Y24/YeLlLgzcKQMS9x4T8aKDVnTp09n6dKl1NfX+4NYsGABq1at8h/OISL09vYSjUaL3kBDkUgkeOqpp2hubj6mjfdJUFNTU/QBVFVV1bDFne31jzfZzvJYMSxxG2OIRqM0NTX5g3JorbniiitYvXo18+fPJxwOU11dzbJly1izZg2LFy/2J8lhjKGpqYmOjo4jEqXx3mTfuHHjiPZefFIYY4qOLnV1daxYsYIzzzzTH5QjO6UZDsaYvDXJeGRY4hYRWltbeeutt/xBA5g5cybXXHMNd999Nw899BAPPvggt912G6tWrRp0yoI3/3z11VdzG+CPhO7ubv7+979z6NAhf9CoIOu9ufzyy/n2t7/NNddcM8BuuOEG7rzzTq699lpqa2v9yXMcPHiw6A1SiGAwyIwZMwo+pZw2bRoNDQ1MnTo1Z9nfa2tr814SHooj6aSOGBnGfm5AKisr5aqrrpLu7m7/9tk8jDGSTqclnU4Puqe3P21tbfK5z31OtNZ55Q61n3vv3r15+8hnzJgh//jHPySZTPqjF+Ro7+devHixP+oAUqmUNDc3y549e/LswIED0tfX50+SI9ue69evl5qamlyZpezn7urqkn/961/y8ssvF7SXXnopz1599VVZv369nHfeeXnnOZitXLlS3n33XX/xORzHkXvvvTcv3XDsqO7njsVivPHGG2zZssUflIdSCtu2sW27pDneY489xgcffHDU5mHNzc288MILdHR0+INGBYFAgBNOOIFZs2blWUNDQ9FRTilFKpXiT3/6U96Wg6GoqanhvPPOG+At6W8XXHBBni1ZsoTzzz+fmTNn+rMblOM9t9d4jVwqIsLHH3/Mgw8+OODLTEeCiPD2229z7733Fl2sDhdjDM8++yz79u07vsPjMcAYwzPPPMOWLVuGPeceKSPZgXg80b/61a9oamoa8mlafxKJBM8//zzr16+nvb3dHzxsduzYwe23386OHTuOugjfe+89XnvttaN60xxvRIStW7fyu9/9Lm99cix7y2OV77FCR6PREd357e3t3Hffffz+979n//79/uCScByHLVu28Otf/5q//OUv/uCjgjGGJ598koMHD/qDSmY0XVTHcdi8eTO/+c1veP311wtO4UZTfY8n+uabb+bEE08s2EhD0dzczC9+8QvuuOMONm7cOKxVe0dHB3/9619Zt24df/jDH4Yc8rTWRadPgUE+wwbw+uuvs2XLliHdX8FgsOAIprUuuidlsLIL5XUk7N+/nyeeeILbbruNJ554YtD2tm37qJeNl2+h8xyMoa6Z9j43d6ywbrrpppv+9re/sW3btiEFVohEIsGmTZvYtWsXiUQit4iMRCJ5DZxIJDhw4ACNjY08/vjj3HXXXWzYsGFI0eG9LDt37lwqKipobW2lo6NjgO3atYunnnpqUNdfMpnMvbLV1taWS9fe3p77+d133+Wf//wnra2tuXRKKaZMmcLJJ59MPB6nra0tZ+3t7fT29rJ161ZeeumlPP9/bW0tixcvpqurKxd/ONbW1saBAwf46KOPeOONN3jsscf47W9/y+bNm4uOtqeffjqTJ0+ms7Nz2OVm2yT7c9Z6enp47733eOWVVwq+FFKIiRMncsopp4DXmfWvS2dnJwcOHGDDhg1s2LDBn7RkLrjgApYuXeo/DAzzE8alsHDhQpYtW8YZZ5zB1KlTCQaDGGOIxWLs3buXzZs388ILL/DRRx/5kxalpqaGU089lenTp+fNy0WErq4uXn/99UF7M6015557Lg0NDXnp8Yb7lpYWtm3bltcONTU1fOYzn6GqqmpAz2VZFoFAgH379vH+++/neS0qKytZuHAhEyZMKFjmUDiOQ19fH/v37y9ZUAAnn3wyc+bMIRgMDrtc5X1Fyt9Da61paWlh+/bttJe4zqqqquKzn/0skyZNystPKUU8HufDDz9k9+7dA8KGw1H7hPFwLRgMSk1NjVRXVxf0XZetbEdqR9XPPRxSqRTd3d309PSMaE5fpsyRcEzFXabM8aQs7jLjlrK4y4xbxpS4Vb//ULg2MAKDBQ1AgVKg0Sh0Lo37r/s7OpuJv4mK5KwApXJ5Do3lxT/MUHXPVu3wAe9k8upcLBcPL0quzH7Jcj8OVaFRjP/KjWpEiWsICCgU2tbogEbZCkSDKESBFLkgyosgCBIQCAFBUBp3ES4abRRKAOVbCLsHvZtAga3QQQsdstC225xCCYtnDTYOloAKaKywxgpbYLn1H0xZosAoUHgffRcBW9Ahm5AdIGAr0MarZ3GyUQSNbQcJhGwCIRtla0zB0scWR93PfSzx+mxUWBGcaBOsD2JV2SilcdIOTjRDsj1JujODchSGwhdYWYpAnU2kIUyoLowVsjAiOD0ZYu1x4ocSSI9BeWIakI121WVVakLTg0QaKghWB8E2mKRDqi1F34EYqUMZSBcuH0804elBKk6sIDI5glVhYwRSPQniTXHie1Kku9KueH1o3HOzaqB6dh2RE0OE6gNYtkUq4ZBoiRPf2UNif4rMoHVQEIDIdJvaT1UTmlmJVWEhRkh1ZOjbEyO6sxunwww8/1FGMT/3qBd3/55DtCZ8QpCqORUEJwaxwhbKcmOJCCotpGMpkgdSdP2nB9PrdU/idbSeKKvmVTFhThWBCTY6qEF71y8DTjxDojNB9P0++j6MeQGuwi00DoaKuVXULJhARUOIQEUAZWtEG8QIkhLS3Wl6Puqh8+0unG6TE6NCIxhUlWLyeTXUzq0nNDGIDivQ3qjjCJlYmt6mGB1bu+h9JwZpbyTINoYFFadEmHZeA5WzKrEnWKiAQnsduUlAsitF5/920rGxg8QB720kBSiFZTSm1uGEJVOoXVhP5eQAKhJAZdshrUjFkiT3Jmh5sY3ObT2YjHO4/FEk9mLitm666aabnn322RE/fj/mKLDQiCVUzK6g5tQJBE4IYFdaWJaN0qC0QlsKFbBQFYpwdYBQVZh4NAEJ7QncQlcLk86qp25+DYG6AFbIQlnKTa8V2lZYYYtgtU1kUgitNPFDCRQWCjAIk06vZdI5k4icGCZYZWMFLZSt3fJtjQpbBKosIpPCVNSF6DnYi3gPTRWCVWcx639mUn9WHaEpIeyI5U6rLIWyFVZAY0VswvVBqiZXoI1FX5PX6QgoW1N7WiX/9X9PpPKkKoK1AXRIu9Mzz6ywRaDGJjKjArs2TKIzTboz5d6iAlatxX9dPIvJy6YQmh5CVwWxAm752tbYISFQBYGpYSInTSCVSRFvikPG19uMAoo9fh8Tc26DITwlTNVJFQQabFRQoUS502Hpb+52T6lUhE4MMuGUaqxI9mo4TDytnqr5FegJrqAHpj3cI2lbY01W1C6YQORTYQSDIFR+uoKa/64hMMtCh9xeEDzFiHsPKQNoja62CJ0aZubS6UhQUCikAqYvOYHIGUEC1QF0gTqICArQQUVoVoCJ/11L3WfqQNxH4OHpQWb+zwwCcy10xLt8ubRZE1AQnKCZeFYVJyyuJ1IfRIBAxGbS/6ln8gV1hCYqIiLYmcPngAjuryFCKkLNCUFOvKiB+rNrXbUUW8yMMka/uEUjEag4MUx4UhiFxnJstNF5iz1BUMZCiYW2YcKMCNYUd7ivmBui+lPV2OEgyuii6y1RBkts7NogdZ+twa5W6AqLiWfWE5gUQWO55R++H3JkNxmIaOxAmMhJYWrmT8DCpnr2BKpPryIc6rdTroBW3AWzQmERmh6k7pwqrEobOxxg6pLJVMypxCKIMgUSZxEQo7Eqg1SdVkP1aTUoIHJimJkXnoBUKcRYZLRG9MCNa1oAMjgqiYhQMT3C5M9PonJmZYEzHr2MfnFjCE0KEZwSQgfc3lrhzqX9zaxwez0lChF3eK+cHsau0kw4uRqrRoNxex9/2oEo9ybREJkSIdwQpmJ2JZFpYSy0e3O4JfkTIlmvnCi0AyoCdQsmYU+wqZ1XS6BWo8Xd5ukbMPIxCm1pIjPCVM6vJlAToPbMOtCgHV2gdB8CYiA4MUj13Goi04NUn1lNeGol4rj1N573pT/ZX40WjLjL+OrZESbMrcjbADWaGQPihoq6CgKVgdyQ7fVtg3BYLkYLoYlhQpNtQnUhtKU878PgqQF3tPD+dLwOaiJTQ1TMroSw4N0dQ+WQq4dSFtbkAKFZNqFZQbQFjjcbGRLlzjOssE3N/GqCU22CkwKuaLMu0SIoDEoc7IAmNDlIxSnV1M2rxZgM2gAYdyrlm2p4EyNUv61Hdq1FcHoQq2pMSAbGirjtiOsNwPNtl0K2Z9UhjV0XxApYJaftj1YQqrHdhZsefnolCrEN4SkB7ErPHVFsTuRDBLSlCE8KEJ4SRFml1yGnWQWqWlExK0LVxDBGMsNqCxFQAQt7QsD1xY8RxoS4jW1yNR2qt+qPqyGNCnoPXDj8IGg4qIBGWaDEKjgVGQxRBnDQGPdBjbIAPaxzcFEoS7DDdmkPiDzcvt2dyllasCIaAhrLWBh3Yj0kyrtBtXKnSMoaE5KBMSNux4Bx+5rShSmgHDAKJ2EQybpW+oWXgChIpRxIuh6T4SJKsBxIJwzGMTg6O7UqDVGut0jHIdGXGtYF0+ItDhVIWsh0GVJp461Nhn77Ca/XFi0YMZiUg8kMvw2OF8Npq+OGiQom4bjCLrFt3WgKp88h3ZpCEgZRrktOm4HzyaJkINmeItWWwDH9HmSUiliohCZxIEaqKwHGneeWjALJQLI5Rd+hHnSqxHoDgsYowSgHJ+qQ2BUj2RQnHTTY6RL/5o1y1y5OwiHVmSYdH4XPQgah9JY6jiRbk6SiKa/nHIa6MhBr7SPdmiHRnMYkjfskcRjqysQyJJvS9O7qIdPrLvBKroFS4GhiB2Ik96eIfxRHJZU3NfJHLoxG4XQ7dG7rJHPIoXd/zBW8P2JBXL+/6RPizUmiO6N0v9WF4yiMHvwdTD9KFKlDaWJ7kkhfaSWPBsaEuBOdCRIHY0jcoNThqYm/93VX/VnxKlJRh/iBGE7K0Pl+F4nWFEa8ObfKLjqz+amcKRSiDaSht6mXZFuKRFOSvt1xTCq7pYgCUxt3liuIu4cLSHVnaP13C5mY0Lmjm3hLtg5Zx2WhfLzjCkzM0Lezj65dfdCpOLipBSfmeE+Mit0hKrdwjTcl6HovSrI9Q8f2bvr+E8OxM7gOUX/ZXtbibRzT4CQcut/vpufDHn/UUc3oF7dye+C+j+PE9yeQtEGUa/4LI4DxdsRJzCG6sxfT7jrGkwdTdL/XQ6rDwSiDozOY7E2S+9c1UYJjHJItaTobo5ikg5OBQ5sO0bs/RcZxEO3k/OpZlGisrKNbINOdobOxk+RO97l1/ECSQ5vaMG1pbMf1xGTdbv1RokBpnEyG6K4eWja2ggPptEPH5m66tkVRCclz4bnVF5QyWBiUMiTbk7S/3Un3jm4A4i1J9v51D6bJK1sptM/RbZRbJwsLk4Hoe310vNFNqjWV1+ajmdEv7qy+uwzdH/QQ3xPHSrjdouN7QmmUQEZDN3S+30Xvrl5MCrISiu7ooWtrF5lWx901qAyiZeAIIKASitR+h70b9yFthy+8tDsceG4vifd6MTHIuH6QXLjRGdJWEiMp0h0p2rd00v5mG4ogCnck6NzcRctLrcS60qQljVEpwBlwk2SsDOlkmtg7KVr/0UlyfwYUCAZzSPHxU/vpfKeDvnTPgEWuJe5YlNIQwyZxCA692MrBV1qQmDvFUWlN77/j7Hx8D8n9GUzakLbShwcjBbYIaZ0iJhDd1knTn/fQvaMXPTbkkmNMbJzKtruJGWKtcdKJFHZFECtou1MAARGFSSnih5IcequV1O4kYrzbVxRgo0RItiRJHEqgtUWg0nZ918bd220cQyIap/1/Ozn0ajt0a4yVAQHbfWAIMUXn7ihOPE2kMoAV1u4dIYI4IH1CbGeSgy+3En2nl4ARMrbj7hSwvHXAvgTdH3YSCUawq0PuHm5vhmCMIXUoTfuGDppfaCbRknBdHu5MCtEG02PoauyBqI2eBnbARokiI4KDYPdBzzsdfPzEx3Rs7EKlNKJALHFdiWlI7k3QsyOKVWERrq1097KL+4wqYxRyIEXLU3vY90QrsaaMOxrmpnOjh2Ibp0b9ltf+9J8jq4DGqrawJihsbZNJZTCdmnQsCWaooVOBBbpKYde5OwxxBKfbkOpKI/HSfMlW2CIw0caqt1ABcPoM6bYMme6Mu4NuKCx3h154Sgi7OoAYId2eInMogxMzGBm6HjqiqWgIY08NQBDSvRkSB5KYNoOkC8+pBxCEQI1F9fQJ6BqFZCDRliR+MI7pNeBkVT9EPseJYltej+l3S462eS/YiDdVFaUQnTMl/VZIRU3l3tlx80EpQWlB6ewyqiRTuHXI1kOVWP5h88pUWpRSgs7mp9zf8+IXMIUojVgasbUlWtlevt65+eP7LNemClEBJdi+8yghj+Npx+27JccS99IrjLgdtRFBe0P3UIi3WUhUtom8vaI5T0tpCF5mojHureLOSkupBLivg2FAjLtN1XivyFH6H0JS3uYox0DGOBgyXp7ZEyyOV223CdICGa8plDclLK0ao5IxJe6829aVV458/8kg9M+k/8G8Y0PjOv48D41y61BKHgovsv+5lPHUViL9o6oBB0ZwMv3xkh9BDsedMSXuUc0wteS/MbNHh5WJjxGlHFGisUFZ3GXGLWVxlxm3lMVdZtxSFneZcUtZ3GXGLWVxlxm3lMVdZtxSFneZcUtZ3GXGLWVxlxm3lMVdZkxTbIOZBneDfPYzWVrrspVtTBgU/1PgSkRk9erVbNy4cYDIy5QZ7USjUdauXct3vvMdfxBkxe0/WKbMeKA85y4zbimLu8y45f8BrwP0VIwxdp0AAAAASUVORK5CYII=;clipPath=inset(0% 3.55% 0% 0.27%);" vertex="1" parent="1">
          <mxGeometry x="84.42" y="283.79999999999995" width="86.78" height="47.82761363636364" as="geometry" />
        </mxCell>
        <mxCell id="Ef1Bo6TqSuuNvDRu5EZb-24" value="" style="shape=image;verticalLabelPosition=bottom;labelBackgroundColor=default;verticalAlign=top;aspect=fixed;imageAspect=0;image=data:image/png,iVBORw0KGgoAAAANSUhEUgAAALMAAABfCAYAAACjkvYKAAAAAXNSR0IArs4c6QAAAARnQU1BAACxjwv8YQUAAAAJcEhZcwAADsMAAA7DAcdvqGQAABoZSURBVHhe7Z17lBzVfec/996qfs77PdJo9EYSQiBACAQGbLCDMRgMBq8fiR/xIQkh2OtzYq+TDQlml03WmNjHTuw4fmB7Y4ONIYDjEGOwAcuYhxBIgMRIGr2lkTQPzXu6u6rub/+o6pmeGUmWd2Or6VOfOXWmu+r2reqqb/3u7/5+t24rERFiYioAPXNFTMwbFSUicmRsmJxXQCkFKCA21jHljCKwAfXpLLWpzNRaEZG/fephNh/aS8I4kbGWaFHTqoiJKQcEIbCW31/9Jq487azJ9UpE5E3/fDu/7HoJnNSUZVaxmGPKFBtQXVXHF6/+IB8+55LJ1UpE5C3f+J882bUZ5SYjEcfElC9iA5qqarn7yg/wwbMvnlwfdgAl6gfGQo55AxOpWGKPIuYNTyhmZQE7c1tMzBuKyDLrOOQc84YnVnBMxRCLOaZiiMUcUzHEYo6pGGIxx1QMsZhjKoZYzDEVQyzmmIohFnNMxRCLOaZiiMUcUzHEYo6pGGIxx1QMsZhjKoZYzDEVQyzmmIohFnNMxRCLOaZiiMUcUzHEYo6pGGIxx1QMsZhjKoZYzDEVQ9mIWYIACfxjL9bGk+zG/FrKQswKmFvXxPLWTpa3zWd5W/H/fFa0z6e9toGENkiZSlqiv5OhOFlwcfnPYGadgvpPq/uNRDQL6J08uW0Tyk3M3P47waD4rxdfyYWdS3C0A1KcVhcSjsuPtm7k+5t/Rd/oMEqXxf2HWAtWwAagNdpxZglIREFA+F3EFNeCLk7sZ0P1KRVOWqlAneTklQJh3TY6HzqaL1AiSVsd2iodTr+mdFivEM3EZk00UWZxfycx2aACpU/9NG7HmwW0PMSsFPe+91ZuWHkuULzoU3xj41N85okH2TdwGGWcmZt/J6jibHy+D2Kpy9bSUdPA6W3zmFNTz4YD3azf9frkzaaAGtdnSVWOtmyOudV56hIBCbGgQ0tugVHPoXskzd7RJLuGM4zmXdCCOoG2JNDUpvN0ZvKcVjfB/OocaROAAkFQEmDFMJhPsn88wbahNLuGMxREkzSWxbXjtKULgGCRSMahNdcS2hIpnRQ2OpZD40l2DGbwRJ2M9H9rlLmYNd+58WauXXE2Ce1Epze0NK52+Kfnf86dTz7E/qOnTswiFsRnVdtCVrcvZGXLXBY2NHN+5xKqkxn+15MPcfeTD4PjApDQwtqWIT591j7mZXMsqRknkwzCW0JJZEE1gWfYOpRh+3CKrYNZfrS7jWcP14IKZglaohbr8o5+Lm/rZ1mtx6qmUZbWjoMuWnmi204xkXfZP5rkwT1N3LV5Af25JA3pAh9ftY8rOvqwosLjUEwqtihgiRqL4kqjhEf3NnLXpvmMes5JtyC/DY4n5vJos0sau2nvTt35moaI0Jip4ZozL+B/vO1GvvquP+S/XfpO3rPqAubXNpHz8hR8r+QDoJUwrybHVQsOsap+hKQGr2AoeC55L0HBS1LwXERpzqgf57oF/fzlmj3cuXYnl8wZxDWzv3xNwuea+b3cfcEO/uLsXVy/+AiLqyfwfEWhYCh4hkLBkPdc8p6Do4WljWOc3zJC2vgg4CjLkpoxzm8eYl3zMOuaR1nXMhK9HuaClnApfX1B8zDnNQ+xrDqHcwpF/OsoGzGfCFEn2736LSHCyua5fOPam7h2xRoSRuPZAl7gc6JfnvOtxvqagtWhrdSCVkLkvgKh212wmnxgKOQdLpvTy2fXvs5b2o4iVkU/mqTJGOHGRUf48kXbWVU3TsGmKAQaXxSiFCiF0gqtFUYpdPHHlqwm7yushK2BCHhWE1iNFyi8QFPwNYXgeIvCC8J6PCnvjmX5iPkEZynUS1hARMLF2snXJ0sx6jBVR8nrYsfpGJ8BIVCWkUIhXCdM/doANioVNdklx6MQtAZXh/7xmG8Y9Qy+gFFFX7VYNqQQOJzfOsStK/aRciw2sqbnNQxz21m7aMvk8Sf3HaKV4CjBtzDma8Y8hWfD9ShBl949RF8zOqeipnfojAJnchEcBUYXXY1T3/k7EWUj5hPZXiWCtQIo0o5LbSpDU7aGulSGpHFCD/sEoi6KVStNwnHIJl3q0hkas7U0ZKrIJlMkjYMm9MdUSV2OMjjGIaF0JLiZ+1EoNI424LqkHIeEMYCQ8wx7hqt5qbeapw7Vcv+uFr7X3cJjBxroGkqTK0YiZmFoqy6wrmUQfJibGeOTq3cxryqPb6c70oJi2NO8NpDlsQMN3N/dxP3dzfz0QB3P99awfaCaI7lkdLNFH4qstqDCwFFEwSr2jqbZMVzFtqEs24aqwmW4mp0jWXpyDsEp7fqdmLLpAH7rhpu57vRiB3AK1zj847M/5XPr/x1HKVa2d7KwqZW5NbX0Dw+z5fABuvoPsXvgMAVri13HSUSEhDHUpbIsqW+lqbqahmwV7TX11GSrKHgFDg0MsHewn71Dvewd6mM4lw+bbWB1ayftNbWsbO3gExddRVtVHb4NJm8+rTWD42M8sOUFHu56kaROMDA2xnP7tzAvM051ymfjgUYwEokogECzqqWPr168gzXNYyDTj9k1AV1Dae7YsIh7u1v5L6cd5r7LtpL3LKok2qMQBnIOP+hu5Y6NC+kbS4bmSXS0L0tb9TgLqibYfjRFfz5NczbP59bt4P2LjmBLdqoVdA8l+dSLS+gazIbtTVG3SuGIMJLXHBpPhB3HU8jxOoBlI+Zv33Az75olZo1rNF969ifsPNrH+8+6iPPmLAg3SSgOK/Byz25u+8m9/HTnFoIZVloruHzpSm497woumr+MulQGpVWJWxH6pQFCd98Rfvj689z5xAOMex4OmnvefTPvXX0BjtIEQRBJaHqSRAFGm8i/hQ0H9nLx1z5DvlBAVNjc66gRDCL3wuYcvnhJF7+/7CDVrj9NIAlteX0wzV9tWMRTPfX83dpd/OGyHrwZrbyrhDs3dnL3Kx0MBkmcYkhPQKxCBCzhd9UIVhTNmQJ3XbCDDyw5gi2pzyjh1aMZ3vP4GWwbzJTEoPWkE6SwKBW2BqeS44n5eO3c755jnp8wMXFx5zL+ZM1lrGmbjx8EeIGPZ8P/gfU5q62Tb737Fi7oWIJCo1Qo0ITr8tE1b+Gea/6Yq5evpiqZxBeLFwT4NsC3Fj+qR6xlcUMLt6x5K7e95d0ktAYE3wbkPQ8/8LEIFjvLJRKYrAeg4BcQ8QGLijqvVlmsElAWoywmVaA+5eEep3N7NJ9kx2iGuoTPWQ3Dx7SGgSh+sLeNHIYVdeO8dc4A7+zo5bK2QRbUjJNwPBxl0Tq6q6ObTamwKYj+TSEaRwtaW1wtGK3DfI4SlAqFfJwLVRaUj5iPgy8BK1s7WNDQjEcQNX3TT6iIpSqd4m8uu4Eq1w0tHz7vX7GWv7n0etpq6/Ekiu9Gly9A8LFhgg4V2h0JyLpJ/ujcy/nQmssItAIVJiNm7vPEhNYsTD4ICRPQXlWgOT1OezbPtYt6eeKaZ7l2/iGS2kbx4+InA6zAq0PVbOqpo8YVllaPM3N0igK2DqV5R9tBHn/7Bn525UZ+cNkWvvPmrdx3+ausf+dGvveWrVzYOoi1Cjstc1f0/6e+lgBp1/J7Hb3ctLyXj67o5dzmcbJO2KYobcOoSRmjAZyow1KOFI/KaHDQkTWZbRkdrVnZ3sFpjS1hQMEqPnjem2mqqonCUmFZbWCokOdrG57mXf/yee5e/+8Me7mpDDNCNpngg2dcSEMyA4ThLn2CNLoASilMVIlTUlYrWFqT4+m3v8zrN2zgtes28M2LtrOmwSNppjpgAqAtPor/s72FOzbMBYS0a6lN58KkTQkCLK0pcNuag5zbVKAxGZDUHq62ZBxLfTLgqs5+vnLhNv50xT4SykbCFUSCWVfbimJ+dow7zt3LXedv57PndfH4lc+z/T3r+fy6HSysziNBmYv50rXreHnTJkimZm4rC7QyeIHwqZ/cz5n/8Jd8f9Pz0W98T0cBVckk71h+DiBcedq5nNbUjtGh5QZAFAaHB7c8x98+/RCPvf4S925+hsd3voZWoQAFwShY3jqHtpp6/vGFx7n23i/wqcfvY2B8FBOVK6KVZriQ4+sv/4Irv/d53vHdv+fjj34H6wWgFFrAQUi5HmnHknUCUsbHVTIti+Yqy+HRLJ9Yv4KP/Px0Do6k0a7QlC5E7sHsm0mrgIQRjA5bnSnDWYwpK5bV5fjUyn3cvGQfeAJRH+FYslRKkzJCytjoPzSkfP7o9AN84cJu1raOYv1jfbI80A8++ADLly+HKIZabhiteGznqzyx4xVe27eNf932PHuGBjB6+hgOAYwyrFuwLBTzitVUJ1LTLJBSCouwe6CXnqN9UMhzaLCffQNHSkqFpB2XizqX8GrPPn7W9Qov7u1mwvcnO3lFtFJ4vkfXoX08tnUjP9v2Chv37yLQUVJeKWwUFStdrAqXkprwA5hXM86ihgmsOCgtJHWYmi7Gs2ditEVEM+6DMlOtQ7QXLAEddRNc3jlMNuNjo+ykSQS4riVpAhKOkEhM4JrwBix2b4vDCgzCZa0DfGDxPtLJAjMaibJBN3bMIeG6lO0RAlt697N3sA+UYmvvQTb07EJHnbxSjFKc3jgHEM5r78Q1Znr8WYQgCLh++Rq+ef3NfOW9t/KFqz/M2xavmiYTAbRWnNmxkMBaAt/HC6bCcTMRgSCw4HnkfS/sUJZs1yhSTkDKeCRMQMIoUlFUo1guEGjJ5viT0w/y2XO3c05TH0Gg8Cm6B7MxSvHj/S28/T9Wc96Da7j6P87g2cPVJFRogUFj0SgUZ9SP8Z7FhxgPNBsO1/Hmh85kzQ9Xc+79azjnB+dw1n0X8OVX5zIWpcFLsaLIOJY3tY/w1rlD4Yi8MvSfNRD6lMc7Y2XAaG6Cca8A2jCez3N0dCTaMv2YFVCVyqKUoi6dxczYXrxEZ7TP48ZV5/O+Vet45+nncFpTO0EUiSiilWJpXUuYFi7eOOrY1hFUuPNiXKwEETg8keCulxfx1y8u5r+/sIjbNsznge56xgoKE7kaEg1Oqkv4vGPBUT62ej8N6QKHxtJRlbP3a5XmS6908HRPFduHqvjJnlZ+sr+RI3kXU/LVA1G0Zwq8fc4AEznD97rbeKqngRf76tnYX8tL/bVs7q/jjo2L+OeuJvpyevK4iviiWVY7zqXtA3CKR80dj9mOWBlSGtdVSk27UNMJ3QilQB3vqylFwnGoSiapTaWpTaZJui7aaEzJ4mhNY6IqEtGvu9lLYlzKRqKf3EJfzuFrXe18ecs8/mlrB1/ZOoc/f34Z/7q7hWHPCdPOUVnfKlJGWNc8ysUtA/QXFMP5cCReKQrYPerQdTSFFU2xD981lKQ350Yp7Kl6U8bSnvFAOfTmXFAapRVKC8pYtIEjoym+3jWPgxPJ0A8vwQpkXZ/ObA60RAawvDjOFS8vatwUGeNCEFCfytBR0zCzCESiH8qNAdAzMkhwjPC+iDCSm6B3fITesVGOjI7SNzo2a+kdG2fIm+pHHO/SCVEIt/hGVNThVIhoxGo8qxmYcOjPJRjIJ+jPJdl9tJpnjtQyVDAlkZQQaxU1rmVxTY6JvGHncHpWGQAvCChYwv0oBeKhRIHoKCVf0pIowRCEb204cCg8O2GrE+ZODS42imAeY4cKEg64iV93c58a3hBiPrt9AQvrWwBY3b6Ac+YuZnZwKXSXuo8eARQbDu7E871pfrUCXK15tOtlbn3kHm55+Bvc+sg9/NmP7uGWH32LWx75Fn/2yLf404e/yU0Pfo2/e+oh/GhMyMw4bxERoTqRYl5dI04yDdaSTKRIGMXcVJ4FtWMkjA2f7PA0eIRRBddjbiZP2oQj2WbUitGWtCuMeg4b+2tm+bECdKYLdFQVQAk2UGBTzK3yaE7lo1R1GO9WCPlA05NLgbKsqBtlflWOpLGIVVjPRaGYUz/KLcv30JEuzBrMFKLxJYwulZ+Uwdx+++23f/ulX7C7/zDKzH7K43eBVorrVp7H8ub2WaEvBdRls7RU1XLm3IVcd/q5rGiZg2+DqcHjUTlfhHs3/4pf7NpK/+gYN646n2wiOeWiEIbSDg8P8cArz/HTTet57eAutvTsZsuBXWw50M2WA93sGO6nuaqWn3dvBqUBoS1by7vPOI/6VHZGEyu4xqEmlWFBfTPrFqxgZct8uo5s45rOI9x0+gHObhrlzKYR1rYOcX7rUS6YM8TvdfZx/fwB5mbys/pSRsFwweXpI7X87EAdSUdz49KD2MBMs4gpI1QnhIO5cLDVlYv6+NBpB1lUMx6VC8u6WuiZSPLN7XPZNZbm8+u6uLR9iDUtI6xtGWJd2xBXdPTx7kWHedeCPmqTs7u6WoEXaJ46UMejO5vQ2p66TqAImUSKK5aeyVnt8ydXl8/YjBtv5l2TT5pMoZVCK40goY0RwZewUZyGgqGJca6/9wv8as82fD/g8Ztu46LOpThqahyuQmHQPN79Kg9sfZ6BiTEm/AKO0lQn0tRmsnRWNzC/vpUPP/gP5LwAEWFBXRM//ehfsKShFS8I84alGK3DvJpS/GrvHm747l/yqVU7+PhZewl8g2fDTpRImABKmvDJEHuMMcIJY9k6UMWnX1zAI9tbaa8p8JWLX+Md8waj6MzUt9conuippmcsy5vn9DOvahwrOsoqhh01o4SfHazn/U+eQU2ywI73/BLEYEVFSxhbN1rwbbhuJgljee1ohs9sWMj929rQro/MMDy/K8p/bMYxUEoxXJhgqDBBYC1WLEHk3c0sJ8COgSO8emh/6AsaxTdf+jkjhTxONEyUyK/2VcDbTlvFV675CF+66g/43Nvfx+eufB9fvPoP+NJVH+STl1xNYyY7FYpTin3DA+wfGcS3MiskCBBYix+FNwMJEAHfQhBoLApHK9JGyDiWRJTCDo4hZEcLeWt4bqCGZ3tqwcDhcZfbX1jEq0erSJjpgzAtlivmDfDhFQforMoRWIOIiWQOrrEcmkjwyJ4meocyaFHkPYPva4Io0K1VKGAv0McUsqOEQOC5vmqe6KkHY0+ZkE9E2RyRQkWDWqIMlVI4ytA3PsYz+7axZ6hvVqKE6EIopegdHeHeTc8wmBsntF2aH25+jgdee55DoyMY7UQDZxRKwAt8rAgtVbUsa5zD4oZ2alNZrLUUfG/aoBoFBF6B72xaz4HhQYwKR8iVXvbSd8VXmuITH6FvHYgQTFrDyeIoQCkhYYQJX/Po3ka+0dXBkdGw42dF0TVQzV2bOnmpv3bS2oZRG0XBd/B8E411nrLGRguHxlPc193CD3Y2grZoCaNBSoXP/tkoUiGlndxoTJJWoUWesJrHexr54c5WBsaSKM0xutannrIRs4glsNHgH7FhsgKLqzQPvvIs973yDP25MYzWuCYcMG+0wRfL/pGjfP3FJ/nq84+j0ZOJkoLn84kff5u71/+YFw7sYiSXQ0RQWuEagykZcC8S7teTgLwNGMwV/c4QZVzueeHnfH/zM/SOj2CUxjEObrQYYxAFvkDeBvgCw74hHygCSxhN0BYnGpEWLqHoBPACxc7hFN/e3sodL3awfl8V2gmjEUpbJhTcu6OZTz+3hB/vbaI35xAEoeAcBQ7FkW5hGHPI07zQV83/3tTJnS/P5/B4CrSPL3B4wqVAeEMZBMcIrhFcY3GMxYkylp5A93CKf+lu5a9fWMyju1tQTjQlwqw25dRTFj6zRvHJi69ibedSjIlG/goYozk8Nsznn/43RvIT3LT2ci5fdAa1qSwomAg89g32sX53F5998mGU0qjIvy4iIuDlWbtwBe8780JWtM6lIZOl2k1H8erwKRQvCBj0cvRPjDE0keOx7a9w36ZfEpRkRkUsdeksf/6mq7h04QrqM1kSxgUL436B3twIg+PjbDy4l79ffz+XtA/ykaU9ZI2lNulRnQhIGYtBR6OiFRM+9E8k6M27fL+7kYf2tIC4aGVREqWWIysKIIHCJIS/OmsHZ9ePMjcrVLkWowJQAaO+oS+XYPPRLN/d0cZLPbXgBKErJoqGlM8frzjI6qYRssqnJZUnlRSSKnyEyirwCgn6CoaBguHe7a08sqcZ3zdoUxzPfWo5ns9cFmJWgDEKrZww21ayTcQSBAF+4KOUpqO2kbm19WgNo7kCu44eYWRsCOUmwxhrydNBRRRgbQBiyaSr6KhuoD6dxRgDAoENyPkeA7kxDo8MUshNgFJox52VwhaxEFhaauvpqG0g7SYIrDCSz3F4dIi+kaNgLcpJRM8KKlzH0pzOU5cMqNEWbcJJWQKrGS0YDowlOJpzwyONnspWoTEP91lcUXwnglhDwvWYX+XRmPRxdOinDxUc9o6mGS64kVUvOhBFdwcINEShv9ZMjsaET8qJkj1WM+IZDown6M8lwmxf5HbMPBenirIWM8ULNjvgCoR+NKVlpJgMCMcIHKtDdjwmnzCZta9i5uPk6pPJ42BKadFVn/np8LhL1pbuOmodTmKXs5hWb7HO36C+Y36ekhtnxkO35cLxxFw2PrOKRHusZVYZbVDaQUUdut+EsE4d1VG6hC7KydY3dRzRZ4udy5kFJ487HPKpVGgtJ5dpQzd/M6bV+/9Q3zE/P1lHeQr5RJSNmGNi/n+JxRxTMcRijqkYYjHHVAyxmGMqhljMMRVDLOaYiiEWc0zFEIs5pmKIxRxTMcRijqkYYjHHVAyxmGMqhljMMRVDLOaYiiEWc0zFEIs5pmKIxRxTMcRijqkYYjHHVAyxmGMqhljMMRVDLOaYiiEWc0zFEIs5pmKIxRxTMcRijqkYlIjIRV/9DM90vQSncOLEmJiTxgZUV9fxxas/xIfPuWRytRIR+di/fYdn9+0g5cz+vbmYmHLDisU1Dh9bdwXXnb5mcr0SEXn18D4GJsZm/dJTTEy5kg98Fje0ML+uaXKdshL+LlFMzBuRqWnUw5/EiIl5w1Kq3/8L8tnQw5f+o18AAAAASUVORK5CYII=;clipPath=inset(0% 1.4% 0% 0.84%);" vertex="1" parent="1">
          <mxGeometry x="85" y="333.21" width="86.2" height="46.8" as="geometry" />
        </mxCell>
        <mxCell id="Ef1Bo6TqSuuNvDRu5EZb-25" value="UI" style="html=1;verticalLabelPosition=bottom;align=center;labelBackgroundColor=#ffffff;verticalAlign=top;strokeWidth=1;strokeColor=#000000;shadow=0;dashed=1;shape=mxgraph.ios7.icons.monitor;opacity=30;textOpacity=30;spacingTop=-41;" vertex="1" parent="1">
          <mxGeometry x="527.5" y="170" width="71" height="50" as="geometry" />
        </mxCell>
        <mxCell id="Ef1Bo6TqSuuNvDRu5EZb-29" value="Notify?" style="text;html=1;align=center;verticalAlign=middle;resizable=0;points=[];autosize=1;strokeColor=none;fillColor=none;rotation=325;opacity=30;" vertex="1" parent="1">
          <mxGeometry x="458" y="231" width="55" height="26" as="geometry" />
        </mxCell>
      </root>
    </mxGraphModel>
  </diagram>
</mxfile>
